<svg id="layout" data-name="layout" xmlns="http://www.w3.org/2000/svg" viewBox="0 0 25.505 6.681">
    <title>Forbes logo</title>
    <path d="M.678,6.858a1.057,1.057,0,0,0,.64-.192,1.36,1.36,0,0,0,.271-.942c0-.323,0-3.065,0-3.065a8.8,8.8,0,0,0-.047-1.114.654.654,0,0,0-.489-.515C.84,1,.678.988.678.988v-.3H5.841V2.528L5.612,2.6a3.3,3.3,0,0,0-.458-.9,1.22,1.22,0,0,0-.864-.5c-.442-.036-1.223-.031-1.223-.031l-.01,2.545.671.01a.508.508,0,0,0,.494-.292,2.022,2.022,0,0,0,.188-.588h.283L4.7,5.047l-.268,0a1.268,1.268,0,0,0-.2-.6.636.636,0,0,0-.516-.322c-.2-.011-.655-.011-.655-.011V5.687a4.474,4.474,0,0,0,.036.536.9.9,0,0,0,.286.484,3.051,3.051,0,0,0,.651.151v.26H.678Z"
          transform="translate(-0.678 -0.571)"/>
    <path d="M7.477,2.393A2.274,2.274,0,0,0,5.2,4.823,2.15,2.15,0,0,0,7.477,7.23,2.228,2.228,0,0,0,9.753,4.823,2.18,2.18,0,0,0,7.477,2.393Zm.873,2.56c0,.354,0,1.963-.873,1.964-.8,0-.886-1.694-.881-1.964V4.7c0-.353.1-1.959.877-1.959S8.355,4.427,8.35,4.7Z"
          transform="translate(-0.678 -0.571)"/>
    <path d="M9.753,6.844a.5.5,0,0,0,.442-.152.769.769,0,0,0,.182-.562c.007-.167,0-2.464,0-2.464a.9.9,0,0,0-.146-.506c-.109-.134-.478-.139-.478-.139V2.785l1.963-.392s-.014.989,0,.968a1.77,1.77,0,0,1,.61-.769,1.171,1.171,0,0,1,.771-.2,1.2,1.2,0,0,1,.451.156l-.514,1.256a1.177,1.177,0,0,0-.756-.243.864.864,0,0,0-.569.244V6.185a1.009,1.009,0,0,0,.111.465.873.873,0,0,0,.645.2v.28H9.753Z"
          transform="translate(-0.678 -0.571)"/>
    <path d="M17.988,4.686c-.021-1.637-.985-2.178-1.72-2.234a1.44,1.44,0,0,0-1.073.264V.571L13.222.919v.229a.83.83,0,0,1,.485.166.788.788,0,0,1,.16.479V7a4.361,4.361,0,0,0,2.3.166A2.344,2.344,0,0,0,17.988,4.686Zm-1.4.237c0,1.361-.728,1.97-1.055,1.97a.536.536,0,0,1-.325-.077V3.156c.052-.122.333-.175.5-.145C16.08,3.077,16.586,3.367,16.586,4.923Z"
          transform="translate(-0.678 -0.571)"/>
    <path d="M20.755,6.463c-1.1-.333-1.026-1.7-.995-1.814h2.722c-.032-1.448-.74-2.256-1.872-2.256a2.274,2.274,0,0,0-2.276,2.43A2.15,2.15,0,0,0,20.61,7.23a2.161,2.161,0,0,0,1.78-.823l-.131-.218A1.661,1.661,0,0,1,20.755,6.463Zm-.268-3.712c.533,0,.592,1.255.589,1.487H19.729C19.73,3.934,19.888,2.751,20.487,2.751ZM22.7,5.6V6.932a2.5,2.5,0,0,0,1.557.32c1.2,0,1.929-.634,1.929-1.574a1.362,1.362,0,0,0-1.021-1.3c-.244-.1-1.139-.408-1.163-.917a.6.6,0,0,1,.66-.7c.519,0,.95.543,1.051,1.2l.239-.107s-.022-1.168,0-1.168a3.34,3.34,0,0,0-1.361-.283c-.733.012-1.722.3-1.806,1.361-.08,1,.648,1.265,1.041,1.467s1.09.3,1.09.871a.665.665,0,0,1-.745.686,1.1,1.1,0,0,1-1.019-.732,2.4,2.4,0,0,1-.173-.507Z"
          transform="translate(-0.678 -0.571)"/>
</svg>