<svg id="main layout" data-name="main layout" xmlns="http://www.w3.org/2000/svg" viewBox="0 0 22.526 22.526">
    <title>Instagram logo</title>
    <path d="M12.29,1.744A10.513,10.513,0,1,1,1.777,12.257,10.525,10.525,0,0,1,12.29,1.744m0-.75h0A11.3,11.3,0,0,0,1.027,12.257h0A11.3,11.3,0,0,0,12.29,23.52h0A11.3,11.3,0,0,0,23.553,12.257h0A11.3,11.3,0,0,0,12.29.994Z"
          transform="translate(-1.027 -0.994)"/>
    <path d="M13.887,12.257a1.6,1.6,0,1,0-.468,1.13A1.54,1.54,0,0,0,13.887,12.257Zm.861,0a2.448,2.448,0,0,1-2.458,2.458,2.45,2.45,0,0,1-2.458-2.458A2.451,2.451,0,0,1,12.29,9.8a2.45,2.45,0,0,1,2.458,2.458ZM15.422,9.7a.577.577,0,0,1-.574.574.573.573,0,1,1,.574-.574ZM12.29,8.327l-.477,0c-.289,0-.509,0-.658,0s-.351.008-.6.019A4.92,4.92,0,0,0,9.91,8.4a2.463,2.463,0,0,0-.446.116,1.629,1.629,0,0,0-.911.91,2.579,2.579,0,0,0-.115.446,5.081,5.081,0,0,0-.063.643c-.01.252-.016.452-.018.6s0,.369,0,.658,0,.448,0,.477,0,.189,0,.478,0,.508,0,.658.008.35.018.6a5.063,5.063,0,0,0,.063.642,2.532,2.532,0,0,0,.115.446,1.635,1.635,0,0,0,.911.911,2.549,2.549,0,0,0,.446.116,4.92,4.92,0,0,0,.643.062c.251.01.452.017.6.019s.369,0,.658,0l.477,0,.477,0q.433,0,.659,0c.149,0,.35-.009.6-.019a4.921,4.921,0,0,0,.642-.062,2.525,2.525,0,0,0,.446-.116,1.635,1.635,0,0,0,.911-.911,2.447,2.447,0,0,0,.115-.446A4.885,4.885,0,0,0,16.2,14c.01-.252.016-.452.018-.6s0-.369,0-.658,0-.448,0-.478,0-.188,0-.477,0-.508,0-.658-.008-.35-.018-.6a4.9,4.9,0,0,0-.063-.643,2.492,2.492,0,0,0-.115-.446,1.629,1.629,0,0,0-.911-.91A2.441,2.441,0,0,0,14.67,8.4a4.921,4.921,0,0,0-.642-.062q-.378-.016-.6-.019t-.659,0Zm4.791,3.93q0,1.43-.031,1.978a2.929,2.929,0,0,1-.773,2.009,2.926,2.926,0,0,1-2.009.773q-.549.032-1.978.032t-1.977-.032A2.923,2.923,0,0,1,8.3,16.244a2.93,2.93,0,0,1-.774-2.009Q7.5,13.686,7.5,12.257T7.53,10.28A2.93,2.93,0,0,1,8.3,8.271,2.928,2.928,0,0,1,10.313,7.5q.549-.03,1.977-.031t1.978.031a2.932,2.932,0,0,1,2.009.774,2.929,2.929,0,0,1,.773,2.009Q17.082,10.829,17.081,12.257Z"
          transform="translate(-1.027 -0.994)"/>
</svg>