<svg id="main layout" data-name="main layout" xmlns="http://www.w3.org/2000/svg" viewBox="0 0 77.05 9.363">
    <title>SimpleAsMoney logo</title>
    <path d="M.4,5.68h.786a1.624,1.624,0,0,0,.455,1.08,1.4,1.4,0,0,0,1.032.406,1.539,1.539,0,0,0,.756-.191,1.463,1.463,0,0,0,.549-.521A1.374,1.374,0,0,0,3.67,4.668a2.93,2.93,0,0,0-1.129-.485L2.36,4.14c-.046-.013-.077-.022-.095-.029a3.046,3.046,0,0,1-.669-.25A1.745,1.745,0,0,1,.886,3.2a1.826,1.826,0,0,1-.256-.95A1.91,1.91,0,0,1,1.642.541,2.158,2.158,0,0,1,2.694.285,2.135,2.135,0,0,1,3.723.531a1.822,1.822,0,0,1,.723.7,2.216,2.216,0,0,1,.292,1.045H3.972a1.494,1.494,0,0,0-.42-.948,1.255,1.255,0,0,0-.909-.34,1.271,1.271,0,0,0-.651.171,1.212,1.212,0,0,0-.459.47,1.329,1.329,0,0,0-.167.657,1.019,1.019,0,0,0,.358.812,3.208,3.208,0,0,0,1.18.5,5.245,5.245,0,0,1,.815.26,2.076,2.076,0,0,1,.512.332,1.992,1.992,0,0,1,.68,1.538,2.032,2.032,0,0,1-.3,1.08,2.185,2.185,0,0,1-.82.779,2.291,2.291,0,0,1-1.126.286,2.426,2.426,0,0,1-.907-.174,2.192,2.192,0,0,1-.749-.485,2.034,2.034,0,0,1-.449-.69A2.449,2.449,0,0,1,.4,5.68Z"
          transform="translate(-0.401 -0.285)"/>
    <path d="M6.028,1.654V.4h.73V1.654Zm0,6.089V2.3h.73v5.44Z" transform="translate(-0.401 -0.285)"/>
    <path d="M8.175,7.743V2.3h.69v.776A1.812,1.812,0,0,1,9.527,2.4a2.031,2.031,0,0,1,.962-.2,1.941,1.941,0,0,1,1.067.268,1.769,1.769,0,0,1,.66.851,2.039,2.039,0,0,1,.73-.853,2.037,2.037,0,0,1,1.088-.266,2.445,2.445,0,0,1,1.211.278,1.753,1.753,0,0,1,.746.826,3.215,3.215,0,0,1,.25,1.338v3.1h-.736V4.709q0-1.824-1.46-1.824A1.388,1.388,0,0,0,12.8,3.5a1.376,1.376,0,0,0-.177.459,4.539,4.539,0,0,0-.044.746V7.743h-.745V4.632a2.7,2.7,0,0,0-.071-.7,1.392,1.392,0,0,0-.307-.542,1.526,1.526,0,0,0-.5-.373,1.446,1.446,0,0,0-.609-.133,1.49,1.49,0,0,0-.67.159,1.351,1.351,0,0,0-.71.886,3.286,3.286,0,0,0-.056.7V7.743Z"
          transform="translate(-0.401 -0.285)"/>
    <path d="M17.649,2.3h.689v.945a2.073,2.073,0,0,1,.41-.46,2.869,2.869,0,0,1,2.967-.327,3.2,3.2,0,0,1,1.017.787,2.6,2.6,0,0,1,.649,1.8,2.694,2.694,0,0,1-.391,1.423,2.847,2.847,0,0,1-1.065,1.024,2.923,2.923,0,0,1-1.462.378,2.4,2.4,0,0,1-1.7-.618,1.92,1.92,0,0,1-.388-.521V9.648h-.731Zm2.814,4.868a2.639,2.639,0,0,0,.879-.181,2.155,2.155,0,0,0,.7-.447,1.967,1.967,0,0,0,.454-.667,2.193,2.193,0,0,0-.13-1.908,2.154,2.154,0,0,0-1.867-1.078,2.19,2.19,0,0,0-1.1.282,2.046,2.046,0,0,0-.779.771,2.144,2.144,0,0,0-.284,1.093A2.135,2.135,0,0,0,19.371,6.88a2.015,2.015,0,0,0,1.052.286Z"
          transform="translate(-0.401 -0.285)"/>
    <path d="M24.537,7.743V.4h.731V7.743Z" transform="translate(-0.401 -0.285)"/>
    <path d="M32.081,5.24H27.162a2.376,2.376,0,0,0,.173.69,2,2,0,0,0,.46.644,2.2,2.2,0,0,0,.689.436,2.2,2.2,0,0,0,2.332-.452,2.058,2.058,0,0,0,.408-.582H32a4.149,4.149,0,0,1-.367.705,2.6,2.6,0,0,1-.459.485,2.8,2.8,0,0,1-.888.516,2.944,2.944,0,0,1-1.015.184,2.818,2.818,0,0,1-2.828-2.835,2.842,2.842,0,0,1,1.407-2.462,2.718,2.718,0,0,1,1.41-.383,2.815,2.815,0,0,1,2.2,1.057A2.707,2.707,0,0,1,32,4.342,6.131,6.131,0,0,1,32.081,5.24Zm-4.894-.669h4.144a1.9,1.9,0,0,0-.383-.853,2.135,2.135,0,0,0-1.678-.833,2.127,2.127,0,0,0-.932.207,2.024,2.024,0,0,0-.732.6A2.229,2.229,0,0,0,27.187,4.571Z"
          transform="translate(-0.401 -0.285)"/>
    <path d="M32.455,7.743,35.627.4h.818l3.147,7.345H38.8L37.743,5.271H34.32L33.252,7.743Zm3.632-6.426-.05-.2-.052.2-1.374,3.3h2.84Z"
          transform="translate(-0.401 -0.285)"/>
    <path d="M40,6.139h.73a1.1,1.1,0,0,0,.294.744,1.017,1.017,0,0,0,1.381.025.919.919,0,0,0-.04-1.341,2.074,2.074,0,0,0-.741-.347,3.684,3.684,0,0,1-.746-.291A1.343,1.343,0,0,1,40.2,3.7a1.442,1.442,0,0,1,.46-1.078,1.515,1.515,0,0,1,1.1-.439,1.457,1.457,0,0,1,1.058.408,1.561,1.561,0,0,1,.464,1.068h-.746a.788.788,0,0,0-.237-.57.833.833,0,0,0-.59-.207.763.763,0,0,0-.776.777.753.753,0,0,0,.24.567,1.388,1.388,0,0,0,.257.158c.07.031.226.085.468.164a4.044,4.044,0,0,1,.888.393,1.317,1.317,0,0,1,.48.506,1.479,1.479,0,0,1,.149.689,1.677,1.677,0,0,1-1.727,1.727,1.726,1.726,0,0,1-.868-.22,1.533,1.533,0,0,1-.6-.613A1.835,1.835,0,0,1,40,6.139Z"
          transform="translate(-0.401 -0.285)"/>
    <path d="M48.449,6.656l.062.26.066-.26L51.147.4h1.144V7.743h-.746V1.215L48.787,7.743h-.629L45.394,1.215V7.743h-.735V.4h1.134Z"
          transform="translate(-0.401 -0.285)"/>
    <path d="M56.369,2.186a2.813,2.813,0,0,1,1.438.383A2.879,2.879,0,0,1,58.858,3.6a2.711,2.711,0,0,1,.387,1.408,2.784,2.784,0,0,1-.383,1.425A2.875,2.875,0,0,1,57.831,7.48a2.715,2.715,0,0,1-1.411.386,2.9,2.9,0,0,1-2.459-1.407,2.707,2.707,0,0,1-.386-1.407,2.785,2.785,0,0,1,.383-1.421A2.887,2.887,0,0,1,54.98,2.577,2.629,2.629,0,0,1,56.369,2.186Zm.051.7a2.19,2.19,0,0,0-1.077.312,2.044,2.044,0,0,0-.759.777,2.178,2.178,0,0,0-.273,1.078,2.1,2.1,0,0,0,2.12,2.114,2.025,2.025,0,0,0,1.057-.286,2.073,2.073,0,0,0,.748-.792A2.266,2.266,0,0,0,58.51,4.98a2.054,2.054,0,0,0-.278-1.037,2.123,2.123,0,0,0-.754-.772,1.943,1.943,0,0,0-1.016-.286Z"
          transform="translate(-0.401 -0.285)"/>
    <path d="M60.394,7.743V2.3h.69v.853a2.631,2.631,0,0,1,.388-.495,2.1,2.1,0,0,1,1.445-.47,2.1,2.1,0,0,1,2.156,1.466,4.508,4.508,0,0,1,.133,1.225V7.743H64.46V4.877a5.128,5.128,0,0,0-.05-.714,1.456,1.456,0,0,0-.517-.94,1.638,1.638,0,0,0-1.062-.338,1.878,1.878,0,0,0-.823.189,1.511,1.511,0,0,0-.6.486,1.205,1.205,0,0,0-.227.495,4.173,4.173,0,0,0-.06.822V7.743Z"
          transform="translate(-0.401 -0.285)"/>
    <path d="M71.969,5.24h-4.92a2.408,2.408,0,0,0,.173.69,2.007,2.007,0,0,0,.461.644,2.205,2.205,0,0,0,.688.436A2.2,2.2,0,0,0,70.7,6.558a2.06,2.06,0,0,0,.409-.582h.775a4.223,4.223,0,0,1-.367.705,2.6,2.6,0,0,1-.459.485,2.8,2.8,0,0,1-.889.516,2.936,2.936,0,0,1-1.015.184,2.818,2.818,0,0,1-2.828-2.835,2.848,2.848,0,0,1,1.407-2.462,2.724,2.724,0,0,1,1.411-.383,2.784,2.784,0,0,1,1.219.275,2.813,2.813,0,0,1,.986.782,2.733,2.733,0,0,1,.535,1.1A6.28,6.28,0,0,1,71.969,5.24Zm-4.894-.669h4.144a1.925,1.925,0,0,0-.383-.853,2.139,2.139,0,0,0-1.679-.833,2.13,2.13,0,0,0-.932.207,2.033,2.033,0,0,0-.732.6A2.241,2.241,0,0,0,67.075,4.571Z"
          transform="translate(-0.401 -0.285)"/>
    <path d="M76.669,2.3h.781L74.3,9.648h-.777l.859-2.073L72.3,2.3h.787l1.737,4.342Z"
          transform="translate(-0.401 -0.285)"/>
</svg>